# xmcd
#
# Track frame offsets: 
#        150
#        15495
#        30889
#        49439
#        63101
#        75556
#        87731
#        99451
#        112768
#        125850
#        135004
#        145341
#        153848
#        166779
#        182994
#        191903
#        208441
#        222242
#        232125
#        246073
#        259629
#        269237
#        284110
#        296381
#        308781
#        319590
#        334768
#
# Disc length: 4627 seconds
#
# Revision: 0
# Processed by: cddbd v1.5.2PL0 Copyright (c) Steve Scherf et al.
# Submitted via: ExactAudioCopyFreeDBPlugin 1.0
#
DISCID=9312111b
DTITLE=The Rolling Stones - 2120 South Michigan Avenue
DYEAR=1964
DGENRE=Blues
TTITLE0=It's All Over Now
TTITLE1=I Can't Be Satisfied
TTITLE2=Stewed and Keefed
TTITLE3=Around and Around
TTITLE4=Confessin' the Blues
TTITLE5=Down in the Bottom
TTITLE6=Empty Heart
TTITLE7=Hi-Heel Sneakers
TTITLE8=Down the Road Apiece
TTITLE9=If You Need Me
TTITLE10=Look What You've Done
TTITLE11=Tell Me Baby
TTITLE12=Time Is On My Side (Version 1)
TTITLE13=Reelin' and Rockin'
TTITLE14=Don't You Lie To Me
TTITLE15=2120 South Michigan Avenue
TTITLE16=What a Shame
TTITLE17=Fanny Mae
TTITLE18=Little Red Rooster
TTITLE19=Time Is On My Side (Version 2)
TTITLE20=Goodbye Girl (unreleased Bill Wyman composition)
TTITLE21=Key To the Highway
TTITLE22=Mercy, Mercy (Version 1)
TTITLE23=Mercy, Mercy (Version 2)
TTITLE24=That's How Strong My Love Is
TTITLE25=The Under-assistant West Coast Promotion Man
TTITLE26=(I Can't Get No) Satisfaction (rejected first version from Sh
TTITLE26=indig)
EXTD=
EXTT0=
EXTT1=
EXTT2=
EXTT3=
EXTT4=
EXTT5=
EXTT6=
EXTT7=
EXTT8=
EXTT9=
EXTT10=
EXTT11=
EXTT12=
EXTT13=
EXTT14=
EXTT15=
EXTT16=
EXTT17=
EXTT18=
EXTT19=
EXTT20=
EXTT21=
EXTT22=
EXTT23=
EXTT24=
EXTT25=
EXTT26=
PLAYORDER=
